<svg width="364" height="394" viewBox="0 0 364 394" fill="none" xmlns="http://www.w3.org/2000/svg">
<path d="M159.808 103.071C162.593 104.091 164.79 105.536 167.254 107.19C168.274 107.873 169.294 108.555 170.346 109.258C171.407 109.977 172.469 110.696 173.562 111.436C174.597 112.128 175.631 112.819 176.697 113.532C182.659 117.537 188.512 121.664 194.304 125.911C198.82 129.199 203.41 132.378 208 135.561C208.492 135.903 208.492 135.903 210.979 137.632C218.368 142.761 225.786 147.849 233.236 152.888C233.969 153.386 234.702 153.884 235.457 154.397C236.096 154.829 236.735 155.262 237.394 155.707C240.898 158.252 240.898 158.252 241.302 160.718C241.326 161.471 241.35 162.224 241.375 162.999C241.407 163.864 241.438 164.728 241.471 165.619C241.483 166.095 241.483 166.095 241.544 168.501C241.577 169.502 241.609 170.502 241.643 171.533C241.924 180.796 242.079 190.064 242.2 199.332C242.282 205.554 242.402 211.771 242.619 217.991C242.827 224.011 242.935 230.026 242.975 236.049C243.007 238.335 243.073 240.62 243.176 242.903C243.917 260.259 243.917 260.259 239.059 266.279C234.319 270.72 229.044 274.127 223.45 277.389C219.9 279.54 216.713 282.069 213.5 284.686C210.401 287.12 207.543 289.173 204 290.874C203.366 290.431 202.732 289.988 202.079 289.532C197.002 285.988 191.923 282.447 186.84 278.913C185.872 278.239 184.903 277.566 183.906 276.872C180.017 274.197 176.086 271.588 172.144 268.991C166.827 265.411 161.6 261.702 156.356 258.015C151.815 254.827 147.257 251.679 142.625 248.624C141.786 248.043 140.947 247.462 140.083 246.863C137 244.874 137 244.874 133.45 243.151C128.603 240.624 124.077 237.932 122.186 232.564C120.848 225.527 121.115 218.375 121.246 211.245C121.244 208.926 121.238 206.608 121.227 204.29C121.22 199.443 121.262 194.599 121.34 189.753C121.436 183.555 121.421 177.364 121.371 171.166C121.343 166.382 121.369 161.6 121.411 156.817C121.426 154.533 121.425 152.249 121.409 149.965C121.328 131.246 121.328 131.246 125.375 126.556C128.155 124.248 130.819 122.566 134 120.874C135.703 119.631 137.391 118.368 139.055 117.073C140.659 115.899 142.266 114.729 143.875 113.561C145.498 112.378 147.12 111.195 148.742 110.01C149.487 109.471 150.232 108.931 150.999 108.375C152.666 107.124 154.255 105.77 155.82 104.393C158 102.874 158 102.874 159.808 103.071Z" fill="#7694C4"/>
<path d="M81.9994 30.8735C82.9894 30.8735 83.9794 30.8735 84.9994 30.8735C85.1161 56.9943 85.2043 83.115 85.2584 109.236C85.2842 121.364 85.3194 133.492 85.3766 145.62C85.4264 156.189 85.4586 166.758 85.4698 177.327C85.4763 182.925 85.4917 188.523 85.528 194.12C85.5619 199.388 85.5724 204.654 85.5649 209.921C85.5663 211.856 85.5762 213.791 85.5954 215.725C85.6202 218.364 85.6143 221.002 85.6006 223.642C85.6152 224.409 85.6298 225.177 85.6448 225.967C85.5887 229.964 85.1704 231.667 82.588 234.789C79.4625 237.306 76.3079 239.603 72.9994 241.874C60.8022 234.432 49.2497 226.01 37.597 217.756C36.2104 216.774 34.8236 215.793 33.4369 214.811C33.0996 214.572 33.0996 214.572 31.3927 213.363C25.0566 208.889 18.6563 204.509 12.2413 200.149C11.863 199.891 11.863 199.891 9.94858 198.588C9.28173 198.136 8.61488 197.683 7.92783 197.217C7.29143 196.774 6.65504 196.33 5.99936 195.874C5.31124 195.549 4.62312 195.224 3.91415 194.89C0.746654 191.554 1.41812 187.694 1.43417 183.265C1.42235 182.279 1.41052 181.294 1.39833 180.278C1.36537 177.011 1.36249 173.746 1.36264 170.479C1.35233 168.211 1.34127 165.943 1.32948 163.674C1.31003 158.915 1.30664 154.157 1.31308 149.398C1.31907 143.301 1.27488 137.205 1.21719 131.108C1.18021 126.422 1.17529 121.735 1.17947 117.049C1.17659 114.801 1.1625 112.554 1.13699 110.306C1.10502 107.16 1.11756 104.017 1.1412 100.87C1.12232 99.9429 1.10344 99.0154 1.08398 98.0598C1.19472 91.8618 1.19472 91.8618 3.53964 88.9818C5.29384 87.4605 7.05977 86.1462 8.99936 84.8735C9.70738 84.3283 10.4154 83.783 11.1449 83.2212C11.4431 83.0091 11.4431 83.0091 12.9525 81.936C13.6442 81.441 14.336 80.9459 15.0487 80.4358C15.7749 79.9202 16.5011 79.4047 17.2494 78.8735C18.8463 77.7298 20.4426 76.5852 22.0384 75.4399C22.856 74.8536 23.6736 74.2672 24.516 73.6631C28.5724 70.74 32.6003 67.7785 36.6244 64.811C37.418 64.2259 38.2117 63.6407 39.0294 63.0378C44.7046 58.8459 50.3474 54.612 55.9808 50.364C62.0015 45.8394 68.1089 41.4374 74.2379 37.0608C74.961 36.5427 75.6841 36.0245 76.429 35.4907C77.0708 35.0329 77.7126 34.5752 78.3739 34.1035C79.9994 32.8735 79.9994 32.8735 81.9994 30.8735Z" fill="#2A508C"/>
<path d="M292.172 152.506C295.795 154.258 298.965 156.436 302.25 158.748C302.598 158.991 302.598 158.991 304.361 160.217C310.139 164.245 315.888 168.314 321.635 172.386C326.458 175.799 331.312 179.162 336.188 182.498C341.386 186.058 346.557 189.654 351.688 193.311C352.252 193.712 352.816 194.113 353.397 194.526C354.94 195.631 356.47 196.752 358 197.873C358.875 198.418 359.749 198.963 360.65 199.525C363.329 202.203 363.587 203.702 363.633 207.427C363.617 208.159 363.6 208.891 363.584 209.645C363.586 210.425 363.588 211.204 363.591 212.008C363.592 214.59 363.558 217.17 363.524 219.752C363.517 221.562 363.512 223.372 363.509 225.181C363.496 229.96 363.452 234.738 363.402 239.516C363.367 243.362 363.353 247.208 363.341 251.055C363.326 255.704 363.301 260.353 363.274 265.002C363.269 265.865 363.264 266.727 363.259 267.616C363.226 272.548 363.157 277.479 363.047 282.41C363.015 284.105 362.994 285.8 362.984 287.495C362.967 290.092 362.912 292.687 362.85 295.283C362.853 296.069 362.856 296.854 362.858 297.663C362.752 300.801 362.671 303.008 360.707 305.54C358.143 307.898 355.357 309.84 352.27 311.44C347.465 314.092 343.187 317.322 338.813 320.623C337.189 321.826 335.564 323.026 333.938 324.225C333.123 324.827 332.308 325.43 331.469 326.05C329.023 327.856 326.575 329.659 324.125 331.459C309.634 342.114 295.224 352.864 281 363.873C278.526 360.088 278.701 356.255 278.699 351.891C278.691 351.081 278.683 350.271 278.675 349.436C278.65 346.717 278.64 343.998 278.63 341.279C278.616 339.331 278.601 337.382 278.586 335.434C278.538 329.034 278.513 322.633 278.488 316.233C278.479 314.029 278.469 311.825 278.46 309.621C278.421 300.454 278.388 291.287 278.37 282.12C278.343 268.984 278.285 255.849 278.184 242.714C278.115 233.476 278.081 224.239 278.072 215.001C278.066 209.484 278.045 203.968 277.987 198.451C277.934 193.26 277.923 188.07 277.946 182.879C277.946 180.976 277.932 179.073 277.9 177.171C277.677 162.8 277.677 162.8 281.004 157.956C288.256 151.365 288.256 151.365 292.172 152.506Z" fill="#2A508C"/>
<path d="M109 255.874C115.355 259.107 121.014 262.981 126.717 267.23C132.06 271.205 137.478 275.061 142.938 278.874C143.363 279.171 143.363 279.171 145.518 280.676C150.726 284.305 155.952 287.909 161.188 291.499C163.108 292.818 165.028 294.138 166.947 295.46C168.41 296.467 169.874 297.473 171.338 298.479C173.73 300.124 176.116 301.779 178.5 303.436C179.249 303.949 179.998 304.462 180.77 304.991C182.55 306.235 184.281 307.548 186 308.874C186 309.534 186 310.194 186 310.874C184.264 312.358 182.456 313.758 180.625 315.124C179.429 316.024 178.234 316.925 177.039 317.827C176.39 318.315 175.74 318.802 175.071 319.305C171.351 322.122 167.679 325.002 164 327.874C158.845 331.889 153.683 335.895 148.5 339.874C140.303 346.168 132.154 352.524 124 358.874C104.202 374.291 104.202 374.291 96.1055 380.479C93.8827 382.193 91.6799 383.922 89.4883 385.674C88.9047 386.136 88.3212 386.598 87.72 387.074C86.6072 387.955 85.4999 388.843 84.3992 389.74C81.3409 392.148 78.9631 393.959 75 393.874C72.6536 392.49 70.7281 391.131 68.625 389.436C67.2941 388.412 65.9606 387.391 64.625 386.374C63.8928 385.813 63.1606 385.252 62.4062 384.674C57.9012 381.303 53.2555 378.132 48.625 374.936C46.6364 373.559 44.6481 372.181 42.6602 370.803C41.7 370.138 40.7398 369.472 39.7505 368.787C35.1569 365.592 30.5921 362.356 26.0291 359.118C22.5534 356.657 19.0614 354.224 15.5391 351.831C14.8094 351.334 14.0797 350.838 13.3279 350.326C11.946 349.388 10.5615 348.454 9.17407 347.525C5.77725 345.22 2.79614 342.916 0 339.874C6.13795 334.724 12.3868 329.781 18.8125 324.999C25.0512 320.354 31.199 315.614 37.3008 310.792C49.7931 300.92 62.4228 291.222 75.0547 281.53C76.0885 280.736 77.1223 279.942 78.1875 279.124C78.7062 278.725 79.2249 278.327 79.7593 277.917C83.0543 275.383 86.3355 272.833 89.6094 270.272C90.0089 269.96 90.0089 269.96 92.0305 268.38C93.5995 267.154 95.1671 265.925 96.7332 264.695C100.725 261.575 104.739 258.615 109 255.874Z" fill="#EB5F36"/>
<path d="M287.927 0.122811C290.175 0.93689 291.746 1.93001 293.66 3.35792C294.361 3.87427 295.063 4.39062 295.785 4.92262C296.537 5.48392 297.288 6.04523 298.062 6.62354C304.487 11.346 310.965 15.9591 317.562 20.436C325.723 25.9836 333.8 31.6386 341.846 37.3501C344.136 38.97 346.435 40.579 348.734 42.186C349.511 42.7299 350.287 43.2738 351.087 43.8342C352.576 44.8764 354.066 45.9164 355.557 46.9539C356.227 47.4236 356.896 47.8934 357.586 48.3774C358.174 48.7881 358.763 49.1987 359.369 49.6218C361.063 50.9217 362.525 52.3326 364 53.8735C356.904 59.9482 349.648 65.7002 342.146 71.2625C337.434 74.7672 332.819 78.3721 328.25 82.061C323.004 86.2951 317.682 90.3952 312.27 94.4165C305.891 99.1823 299.646 104.127 293.369 109.025C289.478 112.061 285.583 115.093 281.688 118.124C280.943 118.703 280.198 119.282 279.431 119.879C272.972 124.901 266.5 129.906 260 134.874C259.327 135.499 258.654 136.124 257.961 136.768C257.637 136.95 257.637 136.95 256 137.874C252.469 136.747 249.638 135.101 246.629 132.967C245.815 132.393 245 131.82 244.161 131.228C243.304 130.616 242.446 130.004 241.562 129.374C240.67 128.743 239.778 128.112 238.858 127.462C233.249 123.492 227.661 119.492 222.077 115.486C213.451 109.313 204.662 103.374 195.902 97.3931C195.045 96.8076 194.188 96.2221 193.305 95.6189C191.636 94.4785 189.965 93.3389 188.294 92.2004C187.532 91.6801 186.77 91.1597 185.984 90.6235C185.311 90.1646 184.638 89.7057 183.944 89.2329C183.624 89.0086 183.624 89.0086 182 87.8735C181.629 87.6183 181.629 87.6183 179.751 86.3267C179.173 85.8471 178.595 85.3676 178 84.8735C178 84.2135 178 83.5535 178 82.8735C179.57 81.5556 181.212 80.3224 182.875 79.1235C183.979 78.3167 185.082 77.508 186.184 76.6978C186.488 76.4743 186.488 76.4743 188.027 75.3438C191.709 72.6001 195.319 69.7632 198.938 66.936C200.499 65.7184 202.06 64.501 203.621 63.2837C204.37 62.6999 205.119 62.1161 205.89 61.5147C208.751 59.2892 211.624 57.0802 214.5 54.8735C219.683 50.8946 224.844 46.8881 230 42.8735C238.971 35.8904 247.969 28.9435 257.012 22.0532C257.909 21.3698 258.805 20.6863 259.729 19.9822C261.566 18.5844 263.404 17.1884 265.243 15.7942C269.231 12.7681 273.203 9.73349 277.098 6.58839C277.693 6.11208 278.289 5.63577 278.902 5.14503C280.444 3.90641 281.974 2.65419 283.504 1.40089C286 -0.126456 286 -0.126457 287.927 0.122811Z" fill="#EB5F36"/>
</svg>
