<svg width="1276" height="394" viewBox="0 0 1276 394" fill="none" xmlns="http://www.w3.org/2000/svg">
<path d="M159.808 103.071C162.593 104.091 164.79 105.536 167.254 107.19C168.274 107.873 169.294 108.555 170.346 109.258C171.407 109.977 172.469 110.696 173.562 111.436C174.597 112.128 175.631 112.819 176.697 113.532C182.659 117.538 188.512 121.664 194.304 125.911C198.82 129.199 203.41 132.378 208 135.561C208.492 135.903 208.492 135.903 210.979 137.632C218.368 142.761 225.786 147.849 233.236 152.888C233.969 153.386 234.702 153.884 235.457 154.397C236.096 154.829 236.735 155.262 237.394 155.707C240.898 158.252 240.898 158.252 241.302 160.718C241.326 161.471 241.35 162.224 241.375 162.999C241.407 163.864 241.438 164.729 241.471 165.619C241.483 166.095 241.483 166.095 241.544 168.501C241.577 169.502 241.609 170.502 241.643 171.533C241.924 180.797 242.079 190.064 242.2 199.332C242.282 205.555 242.402 211.771 242.619 217.991C242.827 224.011 242.935 230.026 242.975 236.049C243.007 238.335 243.073 240.62 243.176 242.903C243.917 260.259 243.917 260.259 239.059 266.279C234.319 270.72 229.044 274.127 223.45 277.389C219.9 279.54 216.713 282.069 213.5 284.686C210.401 287.12 207.543 289.173 204 290.874C203.366 290.431 202.732 289.988 202.079 289.532C197.002 285.988 191.923 282.447 186.84 278.913C185.872 278.239 184.903 277.566 183.906 276.872C180.017 274.197 176.086 271.588 172.144 268.991C166.827 265.411 161.6 261.702 156.356 258.015C151.815 254.827 147.257 251.679 142.625 248.624C141.786 248.043 140.947 247.462 140.083 246.863C137 244.874 137 244.874 133.45 243.151C128.603 240.624 124.077 237.932 122.186 232.564C120.848 225.527 121.115 218.375 121.246 211.245C121.244 208.926 121.238 206.608 121.227 204.29C121.22 199.443 121.262 194.599 121.34 189.753C121.436 183.555 121.421 177.364 121.371 171.166C121.343 166.382 121.369 161.6 121.411 156.817C121.426 154.533 121.425 152.249 121.409 149.965C121.328 131.246 121.328 131.246 125.375 126.556C128.155 124.248 130.819 122.566 134 120.874C135.703 119.631 137.391 118.368 139.055 117.073C140.659 115.899 142.266 114.729 143.875 113.561C145.498 112.379 147.12 111.195 148.742 110.01C149.487 109.471 150.232 108.931 150.999 108.375C152.666 107.124 154.255 105.77 155.82 104.393C158 102.874 158 102.874 159.808 103.071Z" fill="#7694C4"/>
<path d="M81.9998 30.8735C82.9898 30.8735 83.9799 30.8735 84.9998 30.8735C85.1166 56.9943 85.2048 83.115 85.2589 109.236C85.2847 121.364 85.3199 133.492 85.377 145.62C85.4268 156.189 85.4591 166.758 85.4703 177.327C85.4768 182.925 85.4922 188.523 85.5285 194.12C85.5624 199.388 85.5729 204.654 85.5654 209.921C85.5668 211.856 85.5767 213.791 85.5959 215.725C85.6207 218.364 85.6148 221.002 85.6011 223.642C85.6157 224.409 85.6302 225.177 85.6453 225.967C85.5892 229.964 85.1709 231.667 82.5885 234.789C79.463 237.306 76.3084 239.603 72.9998 241.874C60.8027 234.432 49.2502 226.01 37.5975 217.756C36.2109 216.774 34.8241 215.793 33.4373 214.811C33.1001 214.572 33.1001 214.572 31.3932 213.363C25.0571 208.889 18.6568 204.509 12.2418 200.149C11.8635 199.891 11.8635 199.891 9.94907 198.588C9.28222 198.136 8.61537 197.683 7.92831 197.217C7.29192 196.774 6.65553 196.33 5.99985 195.874C5.31173 195.549 4.62361 195.224 3.91464 194.89C0.747142 191.554 1.41861 187.694 1.43466 183.265C1.42283 182.279 1.41101 181.294 1.39882 180.278C1.36585 177.011 1.36298 173.746 1.36313 170.479C1.35282 168.211 1.34176 165.943 1.32997 163.674C1.31051 158.915 1.30713 154.157 1.31357 149.398C1.31956 143.301 1.27537 137.205 1.21768 131.108C1.1807 126.422 1.17578 121.735 1.17995 117.049C1.17708 114.801 1.16299 112.554 1.13747 110.306C1.10551 107.16 1.11805 104.017 1.14169 100.87C1.12281 99.9429 1.10393 99.0154 1.08447 98.0598C1.19521 91.8618 1.1952 91.8618 3.54013 88.9818C5.29432 87.4605 7.06026 86.1462 8.99985 84.8735C9.70786 84.3283 10.4159 83.783 11.1454 83.2212C11.4436 83.0091 11.4436 83.0091 12.953 81.936C13.6447 81.441 14.3365 80.9459 15.0492 80.4358C15.7754 79.9202 16.5016 79.4047 17.2498 78.8735C18.8468 77.7298 20.4431 76.5852 22.0389 75.4399C22.8565 74.8536 23.6741 74.2672 24.5164 73.6631C28.5729 70.74 32.6008 67.7785 36.6248 64.811C37.4185 64.2259 38.2122 63.6407 39.0299 63.0378C44.7051 58.8459 50.3479 54.612 55.9813 50.364C62.002 45.8394 68.1094 41.4374 74.2384 37.0608C74.9615 36.5427 75.6845 36.0245 76.4295 35.4907C77.0713 35.0329 77.7131 34.5752 78.3744 34.1035C79.9998 32.8735 79.9998 32.8735 81.9998 30.8735Z" fill="#2A508C"/>
<path d="M292.172 152.506C295.795 154.258 298.965 156.436 302.25 158.748C302.598 158.991 302.598 158.991 304.361 160.217C310.139 164.245 315.888 168.314 321.635 172.386C326.458 175.799 331.312 179.162 336.188 182.498C341.386 186.058 346.557 189.654 351.688 193.311C352.252 193.712 352.816 194.113 353.397 194.526C354.94 195.631 356.47 196.752 358 197.873C358.875 198.418 359.749 198.963 360.65 199.525C363.329 202.203 363.587 203.702 363.633 207.427C363.617 208.159 363.6 208.891 363.584 209.645C363.586 210.425 363.588 211.204 363.591 212.008C363.592 214.59 363.558 217.17 363.524 219.752C363.517 221.562 363.512 223.372 363.509 225.181C363.496 229.96 363.452 234.738 363.402 239.516C363.367 243.362 363.353 247.208 363.341 251.055C363.326 255.704 363.301 260.353 363.274 265.002C363.269 265.865 363.264 266.727 363.259 267.616C363.226 272.548 363.157 277.479 363.047 282.41C363.015 284.105 362.994 285.8 362.984 287.495C362.967 290.092 362.912 292.687 362.85 295.283C362.853 296.069 362.856 296.854 362.858 297.663C362.752 300.801 362.671 303.008 360.707 305.54C358.143 307.898 355.357 309.84 352.27 311.44C347.465 314.092 343.187 317.322 338.813 320.623C337.189 321.826 335.564 323.026 333.938 324.225C333.123 324.827 332.308 325.43 331.469 326.05C329.023 327.856 326.575 329.659 324.125 331.459C309.634 342.114 295.224 352.864 281 363.873C278.526 360.088 278.701 356.255 278.699 351.891C278.691 351.081 278.683 350.271 278.675 349.436C278.65 346.717 278.64 343.998 278.63 341.279C278.616 339.331 278.601 337.382 278.586 335.434C278.538 329.034 278.513 322.633 278.488 316.233C278.479 314.029 278.469 311.825 278.46 309.621C278.421 300.454 278.388 291.287 278.37 282.12C278.343 268.984 278.285 255.849 278.184 242.714C278.115 233.476 278.081 224.239 278.072 215.001C278.066 209.484 278.045 203.968 277.987 198.451C277.934 193.26 277.923 188.07 277.946 182.879C277.946 180.976 277.932 179.073 277.9 177.171C277.677 162.8 277.677 162.8 281.004 157.956C288.256 151.365 288.256 151.365 292.172 152.506Z" fill="#2A508C"/>
<path d="M109 255.874C115.355 259.107 121.014 262.981 126.717 267.23C132.06 271.205 137.478 275.061 142.938 278.874C143.363 279.171 143.363 279.171 145.518 280.676C150.726 284.305 155.952 287.909 161.188 291.499C163.108 292.818 165.028 294.138 166.947 295.46C168.41 296.467 169.874 297.473 171.338 298.479C173.73 300.124 176.116 301.779 178.5 303.436C179.249 303.949 179.998 304.462 180.77 304.991C182.55 306.235 184.281 307.548 186 308.874C186 309.534 186 310.194 186 310.874C184.264 312.358 182.456 313.758 180.625 315.124C179.429 316.024 178.234 316.925 177.039 317.827C176.39 318.315 175.74 318.802 175.071 319.305C171.351 322.122 167.679 325.002 164 327.874C158.845 331.889 153.683 335.895 148.5 339.874C140.303 346.168 132.154 352.524 124 358.874C104.202 374.291 104.202 374.291 96.1055 380.479C93.8827 382.193 91.6799 383.922 89.4883 385.674C88.9047 386.136 88.3212 386.598 87.72 387.074C86.6072 387.955 85.4999 388.843 84.3992 389.74C81.3409 392.148 78.9631 393.959 75 393.874C72.6536 392.49 70.7281 391.131 68.625 389.436C67.2941 388.412 65.9606 387.391 64.625 386.374C63.8928 385.813 63.1606 385.252 62.4062 384.674C57.9012 381.303 53.2555 378.132 48.625 374.936C46.6364 373.559 44.6481 372.181 42.6602 370.803C41.7 370.138 40.7398 369.472 39.7505 368.787C35.1569 365.592 30.5921 362.356 26.0291 359.118C22.5534 356.657 19.0614 354.224 15.5391 351.831C14.8094 351.334 14.0797 350.838 13.3279 350.326C11.946 349.388 10.5615 348.454 9.17407 347.525C5.77725 345.22 2.79614 342.916 0 339.874C6.13795 334.724 12.3868 329.781 18.8125 324.999C25.0512 320.354 31.199 315.614 37.3008 310.792C49.7931 300.92 62.4228 291.222 75.0547 281.53C76.0885 280.736 77.1223 279.942 78.1875 279.124C78.7062 278.725 79.2249 278.327 79.7593 277.917C83.0543 275.383 86.3355 272.833 89.6094 270.272C90.0089 269.96 90.0089 269.96 92.0305 268.38C93.5995 267.154 95.1671 265.925 96.7332 264.695C100.725 261.575 104.739 258.615 109 255.874Z" fill="#EB5F36"/>
<path d="M287.927 0.122811C290.175 0.93689 291.746 1.93001 293.66 3.35792C294.361 3.87427 295.063 4.39062 295.785 4.92262C296.537 5.48392 297.288 6.04523 298.062 6.62354C304.487 11.346 310.965 15.9591 317.562 20.436C325.723 25.9836 333.8 31.6386 341.846 37.3501C344.136 38.97 346.435 40.579 348.734 42.186C349.511 42.7299 350.287 43.2738 351.087 43.8342C352.576 44.8764 354.066 45.9164 355.557 46.9539C356.227 47.4236 356.896 47.8934 357.586 48.3774C358.174 48.7881 358.763 49.1987 359.369 49.6218C361.063 50.9217 362.525 52.3326 364 53.8735C356.904 59.9482 349.648 65.7002 342.146 71.2625C337.434 74.7672 332.819 78.3721 328.25 82.061C323.004 86.2951 317.682 90.3952 312.27 94.4165C305.891 99.1823 299.646 104.127 293.369 109.025C289.478 112.061 285.583 115.093 281.688 118.124C280.943 118.703 280.198 119.282 279.431 119.879C272.972 124.901 266.5 129.906 260 134.874C259.327 135.499 258.654 136.124 257.961 136.768C257.637 136.95 257.637 136.95 256 137.874C252.469 136.747 249.638 135.101 246.629 132.967C245.815 132.393 245 131.82 244.161 131.228C243.304 130.616 242.446 130.004 241.562 129.374C240.67 128.743 239.778 128.112 238.858 127.462C233.249 123.492 227.661 119.492 222.077 115.486C213.451 109.313 204.662 103.374 195.902 97.3931C195.045 96.8076 194.188 96.2221 193.305 95.6189C191.636 94.4785 189.965 93.3389 188.294 92.2004C187.532 91.6801 186.77 91.1597 185.984 90.6235C185.311 90.1646 184.638 89.7057 183.944 89.2329C183.624 89.0086 183.624 89.0086 182 87.8735C181.629 87.6183 181.629 87.6183 179.751 86.3267C179.173 85.8471 178.595 85.3676 178 84.8735C178 84.2135 178 83.5535 178 82.8735C179.57 81.5556 181.212 80.3224 182.875 79.1235C183.979 78.3167 185.082 77.508 186.184 76.6978C186.488 76.4743 186.488 76.4743 188.027 75.3438C191.709 72.6001 195.319 69.7632 198.938 66.936C200.499 65.7184 202.06 64.501 203.621 63.2837C204.37 62.6999 205.119 62.1161 205.89 61.5147C208.751 59.2892 211.624 57.0802 214.5 54.8735C219.683 50.8946 224.844 46.8881 230 42.8735C238.971 35.8904 247.969 28.9435 257.012 22.0532C257.909 21.3698 258.805 20.6863 259.729 19.9822C261.566 18.5844 263.404 17.1884 265.243 15.7942C269.231 12.7681 273.203 9.73349 277.098 6.58839C277.693 6.11208 278.289 5.63577 278.902 5.14503C280.444 3.90641 281.974 2.65419 283.504 1.40089C286 -0.126456 286 -0.126457 287.927 0.122811Z" fill="#EB5F36"/>
<path d="M443 169H467L475.88 181C482.92 170.6 495.96 165.4 515 165.4C524.76 165.4 533.16 167.24 540.2 170.92C547.24 174.6 552.6 179.64 556.28 186.04C563.16 198.04 566.6 212.36 566.6 229C566.6 249.32 562.2 264.68 553.4 275.08C549.88 279.08 545.16 282.44 539.24 285.16C533.32 287.72 526.44 289 518.6 289H491V325L443 328.6V169ZM491 209.32V257.56H498.44C504.2 257.56 508.36 257 510.92 255.88C513.64 254.6 515 251.8 515 247.48V200.44H507.56C504.04 200.44 501.24 200.6 499.16 200.92C497.08 201.24 495.24 202.12 493.64 203.56C492.04 204.84 491.16 206.76 491 209.32ZM632.534 248.2V256.6C637.334 257.08 642.134 257.32 646.934 257.32C661.814 257.32 676.854 254.92 692.054 250.12L697.814 285.4C679.894 290.2 662.134 292.6 644.534 292.6C622.134 292.6 605.894 287.4 595.814 277C585.894 266.44 580.934 250.44 580.934 229C580.934 207.56 585.894 191.64 595.814 181.24C605.894 170.68 622.054 165.4 644.294 165.4C666.694 165.4 682.134 168.44 690.614 174.52C699.094 180.6 703.334 191.96 703.334 208.6C703.334 222.68 698.214 232.84 687.974 239.08C677.894 245.16 659.414 248.2 632.534 248.2ZM632.534 210.52V220.36H642.374C648.134 220.36 652.294 219.8 654.854 218.68C657.574 217.4 658.934 214.6 658.934 210.28V200.44H649.094C643.334 200.44 639.094 201.08 636.374 202.36C633.814 203.48 632.534 206.2 632.534 210.52ZM745.438 169L757.438 181C772.318 170.6 788.318 165.4 805.438 165.4C816.638 165.4 825.438 167.88 831.838 172.84C838.238 177.64 841.438 184.36 841.438 193V289H793.438V205H785.998C780.558 205 776.398 205.64 773.518 206.92C770.798 208.04 769.438 210.44 769.438 214.12V289H721.438V169H745.438ZM1154.72 177.4H1119.92V289H1071.92V177.4H1037.12V139H1154.72V177.4ZM1267.52 246.04L1271.12 286.36C1261.04 290.52 1248.4 292.6 1233.2 292.6C1218 292.6 1205.76 291 1196.48 287.8C1187.36 284.6 1180.16 279.56 1174.88 272.68C1169.6 265.8 1165.92 257.72 1163.84 248.44C1161.76 239.16 1160.72 227.72 1160.72 214.12C1160.72 200.52 1161.76 189.08 1163.84 179.8C1165.92 170.36 1169.6 162.2 1174.88 155.32C1185.12 142.04 1203.92 135.4 1231.28 135.4C1237.36 135.4 1244.48 136.04 1252.64 137.32C1260.96 138.44 1267.12 139.88 1271.12 141.64L1263.92 178.36C1253.52 176.12 1244 175 1235.36 175C1226.72 175 1220.72 175.8 1217.36 177.4C1214 179 1212.32 182.2 1212.32 187V249.88C1218.56 251.16 1224.88 251.8 1231.28 251.8C1244.88 251.8 1256.96 249.88 1267.52 246.04Z" fill="#2A508C"/>
<path d="M1031.07 289H978.266L958.586 244.36H948.266V289H900.266V139H975.866C1010.27 139 1027.47 156.52 1027.47 191.56C1027.47 215.56 1020.03 231.4 1005.15 239.08L1031.07 289ZM948.266 177.4V207.4H959.306C965.066 207.4 969.226 206.84 971.786 205.72C974.506 204.44 975.866 201.64 975.866 197.32V187.48C975.866 183.16 974.506 180.44 971.786 179.32C969.226 178.04 965.066 177.4 959.306 177.4H948.266Z" fill="#EB5F36"/>
</svg>
