<svg viewBox="0 0 214 60" xmlns="http://www.w3.org/2000/svg" fill="none" role="img" aria-label="OpenRTC">
  <g transform="translate(6 6) scale(0.9375)">
    <path d="M13 5h22a8 8 0 0 1 8 8v22a8 8 0 0 1-8 8H13a8 8 0 0 1-8-8V13a8 8 0 0 1 8-8Zm0 5a3 3 0 0 0-3 3v22a3 3 0 0 0 3 3h22a3 3 0 0 0 3-3V13a3 3 0 0 0-3-3H13Z" fill="#2A508C"/>
    <circle cx="18.6" cy="18.6" r="4.6" fill="#EB5F36"/>
    <circle cx="29.4" cy="18.6" r="4.6" fill="#7694C4"/>
    <circle cx="18.6" cy="29.4" r="4.6" fill="#7694C4"/>
    <circle cx="29.4" cy="29.4" r="4.6" fill="#7694C4"/>
  </g>
  <text x="60" y="42" font-family="Inter, -apple-system, 'Segoe UI', sans-serif" font-size="40" font-weight="800" letter-spacing="-1.5" fill="#12203A">Open<tspan fill="#EB5F36">RTC</tspan></text>
</svg>
